<svg width="256" height="256" viewBox="0 0 256 256" fill="none" xmlns="http://www.w3.org/2000/svg">
  <g filter="url(#glow)">
    <circle cx="128" cy="88" r="11" fill="#55F7FF"/>
    <circle cx="128" cy="88" r="17" stroke="#55F7FF" stroke-opacity=".22" stroke-width="3"/>
  </g>
  <path d="M128 30L169 82L128 54L87 82L128 30Z" stroke="url(#paint0)" stroke-width="5" stroke-linejoin="round"/>
  <path d="M38 82L106 168L128 180L150 168L218 82L169 174L128 205L87 174L38 82Z" stroke="url(#paint1)" stroke-width="7" stroke-linejoin="round"/>
  <path d="M61 103L113 165M82 105L123 154M103 109L130 143" stroke="#5DF4FF" stroke-width="5" stroke-linecap="round" opacity=".92"/>
  <path d="M195 103L143 165M174 105L133 154M153 109L126 143" stroke="#A852FF" stroke-width="5" stroke-linecap="round" opacity=".92"/>
  <path d="M101 190L128 204L155 190L128 179L101 190Z" stroke="url(#paint2)" stroke-width="5" stroke-linejoin="round"/>
  <defs>
    <filter id="glow" x="82" y="42" width="92" height="92" filterUnits="userSpaceOnUse" color-interpolation-filters="sRGB">
      <feGaussianBlur stdDeviation="9" result="blur"/>
      <feMerge>
        <feMergeNode in="blur"/>
        <feMergeNode in="SourceGraphic"/>
      </feMerge>
    </filter>
    <linearGradient id="paint0" x1="87" y1="56" x2="169" y2="56" gradientUnits="userSpaceOnUse">
      <stop stop-color="#5DF4FF"/>
      <stop offset="1" stop-color="#9B5CFF"/>
    </linearGradient>
    <linearGradient id="paint1" x1="38" y1="143.5" x2="218" y2="143.5" gradientUnits="userSpaceOnUse">
      <stop stop-color="#5DF4FF"/>
      <stop offset=".54" stop-color="#5D7CFF"/>
      <stop offset="1" stop-color="#A852FF"/>
    </linearGradient>
    <linearGradient id="paint2" x1="101" y1="191.5" x2="155" y2="191.5" gradientUnits="userSpaceOnUse">
      <stop stop-color="#5DF4FF"/>
      <stop offset="1" stop-color="#A852FF"/>
    </linearGradient>
  </defs>
</svg>
